<svg xmlns="http://www.w3.org/2000/svg" width="512" height="512" viewBox="0 0 512 512">
<g>
<path d="M 510.60 298.15 C510.96,301.37 511.43,304.00 511.63,304.00 C511.83,304.00 512.00,235.60 512.00,152.00 L 512.00 512.00 L 511.90 421.25 C511.82,344.42 511.61,331.73 510.54,338.50 C503.51,383.09 473.93,421.58 432.78,439.70 C394.07,456.73 350.21,454.44 313.91,433.51 L 306.19 429.06 L 296.35 433.08 C248.84,452.51 192.86,456.28 142.36,443.45 C102.86,433.42 71.09,415.51 45.41,388.79 C18.71,361.03 3.76,326.85 0.64,286.50 C0.64,286.45 0.64,286.43 0.63,286.43 C0.47,286.43 0.26,335.48 0.17,397.25 L 0.00 512.00 L 0.00 0.00 L 0.14 134.75 C0.22,219.65 0.60,265.82 1.15,259.56 C4.41,222.50 21.09,185.52 46.40,159.23 C61.05,144.00 73.00,135.04 90.08,126.46 C113.86,114.52 139.75,108.60 171.99,107.73 L 180.47 107.50 L 182.03 88.26 C184.12,62.44 185.17,61.11 203.50,61.11 C221.26,61.11 222.63,62.78 224.59,86.78 C225.34,95.98 225.97,104.44 225.98,105.60 C226.00,107.62 226.61,107.72 242.75,108.30 C287.84,109.93 324.91,124.77 354.32,152.97 C362.55,160.86 376.29,177.34 379.67,183.37 C380.31,184.51 383.46,185.19 391.68,185.97 C433.09,189.88 468.76,211.66 491.57,246.99 C500.70,261.13 508.90,283.18 510.60,298.15 ZM 179.00 433.97 C190.07,435.31 226.76,434.43 238.00,432.56 C256.37,429.50 275.13,424.53 286.23,419.79 L 290.97 417.77 L 282.39 408.66 C264.75,389.92 252.96,366.69 248.32,341.55 C246.04,329.21 246.08,305.49 248.39,293.58 C256.92,249.72 286.92,212.77 328.11,195.40 C336.70,191.77 353.71,187.00 358.04,187.00 C359.48,187.00 360.95,186.72 361.29,186.37 C362.17,185.50 353.71,174.69 346.51,167.49 C336.29,157.27 316.99,143.00 313.39,143.00 C312.79,143.00 311.45,143.95 310.41,145.10 C307.40,148.43 304.51,149.50 287.79,153.53 L 272.08 157.31 L 272.57 161.40 C274.47,177.36 275.78,201.21 274.92,204.33 C273.76,208.52 268.37,213.54 264.00,214.50 C257.45,215.94 254.31,214.37 232.00,198.52 C210.66,183.36 203.74,178.88 202.42,179.39 C201.18,179.87 170.22,201.35 156.63,211.16 C151.84,214.62 146.97,215.61 142.00,214.12 C137.74,212.84 132.39,207.39 131.35,203.27 C130.98,201.79 131.48,190.98 132.46,179.25 C133.44,167.52 134.04,157.70 133.78,157.45 C133.52,157.19 125.80,155.14 116.63,152.88 C102.21,149.34 99.53,148.37 96.91,145.76 C93.38,142.23 92.92,142.34 82.11,149.41 C66.07,159.89 50.64,175.92 39.83,193.32 C3.39,252.00 9.77,327.91 55.21,376.48 C84.36,407.63 127.66,427.74 179.00,433.97 ZM 359.50 433.34 C377.18,436.53 398.59,434.89 416.21,428.98 C447.29,418.57 473.54,394.39 486.63,364.11 C505.77,319.85 495.00,267.06 460.01,233.63 C443.67,218.03 425.57,208.44 402.84,203.37 C392.41,201.05 368.28,201.03 356.69,203.33 C321.28,210.38 290.37,234.06 274.23,266.50 C258.23,298.67 258.33,336.99 274.50,369.50 C280.79,382.14 286.05,389.52 296.05,399.72 C313.28,417.28 335.35,428.98 359.50,433.34 ZM 398.16 418.59 C389.16,420.32 368.81,420.28 360.00,418.51 C317.14,409.91 284.27,375.27 277.95,332.05 C276.35,321.11 277.27,303.95 280.04,293.00 C282.41,283.66 288.97,268.85 294.08,261.32 C316.83,227.79 357.41,210.51 397.12,217.47 C419.36,221.36 437.46,231.20 453.50,248.12 C469.43,264.92 478.25,284.19 481.01,308.25 C483.54,330.27 476.21,358.48 463.32,376.33 C447.37,398.41 423.87,413.65 398.16,418.59 ZM 368.62 403.91 C372.40,404.42 379.33,404.61 384.00,404.31 C426.19,401.69 459.67,369.94 465.02,327.50 C468.74,297.94 454.62,265.63 430.50,248.50 C415.65,237.94 401.72,233.15 383.50,232.33 C373.74,231.89 369.65,232.18 361.59,233.85 C320.42,242.39 291.32,279.76 293.33,321.50 C293.99,335.36 295.92,342.90 302.01,355.50 C314.54,381.43 340.17,400.06 368.62,403.91 ZM 147.48 192.41 C146.82,197.36 146.92,198.17 148.09,197.45 C149.42,196.64 172.58,180.44 188.81,168.97 C197.53,162.81 201.90,161.35 207.03,162.89 C210.09,163.81 221.94,171.78 253.23,194.00 C255.84,195.85 258.28,197.05 258.67,196.67 C259.05,196.28 258.60,186.67 257.66,175.30 L 255.96 154.64 L 258.23 150.09 C259.49,147.57 261.84,144.78 263.50,143.85 C265.15,142.92 272.80,140.69 280.50,138.90 C288.20,137.11 294.89,135.31 295.36,134.91 C296.36,134.06 282.60,129.63 272.50,127.54 C260.03,124.97 248.89,124.00 231.95,124.00 C230.68,124.00 229.48,124.01 228.36,124.01 C220.15,124.04 215.88,124.06 213.50,121.95 C210.60,119.38 210.51,113.64 209.50,100.91 C208.70,90.79 208.03,81.26 208.02,79.75 C208.00,77.16 207.73,77.00 203.55,77.00 C203.29,77.00 203.04,77.00 202.81,76.99 C201.67,76.98 200.82,76.97 200.18,77.32 C198.25,78.38 198.11,82.70 196.97,100.00 C195.85,117.23 194.92,121.43 191.93,123.04 C190.94,123.57 182.92,124.00 174.12,124.00 C150.92,124.00 127.26,127.68 114.00,133.35 C112.60,133.95 111.60,134.32 111.59,134.71 C111.58,135.43 114.94,136.21 125.33,138.60 C125.97,138.75 126.63,138.91 127.33,139.07 C148.63,143.99 150.58,146.35 149.46,165.85 C149.06,172.77 148.63,180.25 148.51,182.47 C148.38,184.69 147.92,189.16 147.48,192.41 ZM 422.92 324.25 C421.02,325.80 418.25,326.00 398.81,326.00 L 376.85 326.00 L 373.88 323.03 L 370.91 320.07 L 371.21 290.44 L 371.50 260.82 L 373.86 258.91 C376.97,256.39 382.44,256.44 385.00,259.00 C386.89,260.89 387.00,262.33 387.00,285.44 L 387.00 309.87 L 404.59 310.19 C421.93,310.50 422.21,310.54 424.18,312.98 C426.69,316.07 426.06,321.69 422.92,324.25 Z" fill="rgb(3,1,2)"/>
<path d="M 41.20 384.25 C42.57,385.79 43.97,387.30 45.41,388.79 C71.09,415.51 102.86,433.42 142.36,443.45 C147.09,444.65 151.88,445.71 156.70,446.62 C129.78,441.61 104.23,432.20 82.15,418.54 C66.42,408.81 52.68,397.25 41.20,384.25 ZM 11.51 214.98 C19.42,193.90 31.17,175.05 46.40,159.23 C31.41,174.80 19.45,194.12 11.51,214.98 ZM 0.74 253.16 C0.94,257.63 1.21,257.40 1.57,254.74 C1.83,252.85 2.11,250.97 2.42,249.10 C1.88,252.58 1.46,256.07 1.15,259.56 C1.00,261.28 0.86,259.05 0.74,253.16 ZM 2.74 303.65 C4.91,316.45 8.39,328.56 13.16,339.98 C8.26,328.39 4.75,316.23 2.74,303.65 ZM 0.56 289.53 C0.58,287.50 0.61,286.43 0.63,286.43 C0.64,286.43 0.64,286.45 0.64,286.50 C0.77,288.15 0.92,289.80 1.09,291.43 C0.88,289.83 0.71,288.59 0.63,288.00 C0.62,287.98 0.62,287.97 0.62,287.97 C0.60,287.97 0.58,288.50 0.56,289.53 Z" fill="rgb(74,78,47)"/>
<path d="M 149.67 164.91 C149.29,172.76 149.40,175.21 150.00,172.50 C150.49,170.30 150.91,164.13 150.94,158.78 C151.00,149.30 150.93,148.98 147.89,145.53 C146.18,143.58 143.59,141.70 142.14,141.36 C140.69,141.01 138.82,140.16 138.00,139.47 C136.68,138.36 130.24,137.16 124.59,136.96 C121.84,136.87 119.00,135.15 119.00,133.57 C119.00,132.82 120.45,131.97 122.25,131.67 C124.04,131.36 128.43,130.37 132.00,129.46 C135.57,128.54 141.20,127.73 144.50,127.64 C147.80,127.56 151.10,127.11 151.84,126.63 C152.58,126.15 160.46,125.44 169.34,125.04 L 185.50 124.31 L 171.80 124.16 C168.00,124.11 164.07,124.21 160.10,124.44 C164.73,124.15 169.43,124.00 174.12,124.00 C182.61,124.00 190.36,123.60 191.79,123.10 C191.74,123.14 191.69,123.18 191.63,123.23 C189.51,124.95 189.51,124.96 192.71,124.98 C197.26,125.01 198.21,122.71 197.13,114.31 C196.31,107.91 196.25,107.79 196.13,112.32 C196.03,115.82 195.49,118.30 194.27,120.30 C195.54,117.33 196.21,111.64 196.97,100.00 C197.21,96.35 197.41,93.28 197.58,90.69 C197.53,91.57 197.47,92.50 197.41,93.48 C196.77,103.81 196.83,104.38 198.45,103.04 C199.74,101.97 200.02,100.72 199.58,98.06 C198.20,89.80 199.81,80.54 202.76,79.78 C206.54,78.80 207.00,79.88 207.06,89.83 C207.09,95.15 207.69,104.36 208.40,110.31 C209.21,117.16 209.48,120.92 211.49,122.99 C213.95,125.52 218.99,125.53 230.75,125.57 C231.56,125.57 232.40,125.57 233.28,125.58 C244.45,125.62 254.80,126.17 258.00,126.88 C261.02,127.55 264.62,128.10 266.00,128.09 C270.07,128.07 283.04,131.13 282.51,131.99 C282.24,132.42 282.58,132.75 283.26,132.73 C286.61,132.61 288.00,133.14 288.00,134.53 C288.00,135.62 287.07,136.02 284.75,135.91 C282.96,135.82 279.83,136.48 277.78,137.37 C275.74,138.27 273.17,139.00 272.07,139.00 C270.97,139.00 267.60,139.92 264.59,141.05 C257.22,143.81 255.00,147.36 255.00,156.37 C255.00,160.02 255.39,163.00 255.88,163.00 C256.27,163.00 256.47,161.73 256.40,159.99 L 257.26 170.45 C256.76,165.76 256.32,164.00 255.81,164.00 C254.89,164.00 255.31,179.23 256.30,182.00 C256.59,182.82 257.06,185.44 257.33,187.81 C257.93,193.03 256.06,194.35 252.63,191.13 C251.39,189.96 249.85,189.00 249.21,189.00 C248.57,189.00 247.31,187.88 246.41,186.50 C245.48,185.08 243.81,184.00 242.56,184.00 C241.34,184.00 239.26,182.83 237.92,181.39 C236.59,179.96 234.48,178.39 233.23,177.91 C231.98,177.43 230.54,175.93 230.03,174.58 C228.95,171.74 225.51,169.59 223.37,170.41 C222.56,170.72 222.14,170.58 222.44,170.10 C222.74,169.61 221.87,168.93 220.51,168.59 C219.15,168.25 216.51,166.63 214.64,164.99 C212.50,163.11 210.17,162.01 208.37,162.04 L 205.50 162.08 L 208.80 163.51 C211.56,164.71 232.28,178.90 248.66,190.76 C220.77,171.00 209.94,163.76 207.03,162.89 C203.91,161.96 201.07,162.13 197.37,163.79 C198.37,163.30 199.22,162.94 199.81,162.77 C202.97,161.89 203.21,161.63 201.50,160.98 C199.68,160.30 194.67,162.41 191.55,165.16 C191.03,165.62 189.67,166.00 188.54,166.00 C187.36,166.00 186.05,166.96 185.49,168.25 C184.94,169.48 183.15,171.13 181.50,171.91 C179.85,172.69 177.91,174.15 177.19,175.16 C176.45,176.20 174.66,177.00 173.06,177.00 C171.07,177.00 170.08,177.60 169.71,179.00 C169.41,180.16 168.35,181.00 167.18,181.00 C166.08,181.00 164.04,182.35 162.65,184.00 C161.27,185.65 159.59,187.00 158.93,187.00 C158.27,187.00 156.24,188.59 154.40,190.53 L 151.07 194.07 L 147.70 190.70 C148.06,187.73 148.40,184.32 148.51,182.47 C148.63,180.25 149.06,172.77 149.46,165.85 C149.95,157.29 149.85,152.04 147.79,148.41 C149.85,151.92 150.05,156.93 149.67,164.91 ZM 257.47 151.62 C258.71,148.42 260.81,145.52 263.20,144.03 C261.57,145.11 259.41,147.72 258.23,150.09 ZM 147.08 196.08 C147.23,197.38 147.57,197.74 148.19,197.39 C148.15,197.41 148.12,197.43 148.09,197.45 C147.31,197.93 147.00,197.73 147.08,196.08 ZM 140.09 126.59 C129.82,128.22 120.48,130.58 114.00,133.35 C120.58,130.54 129.72,128.21 140.09,126.59 ZM 199.69 77.70 C199.84,77.54 200.00,77.42 200.18,77.32 C200.82,76.97 201.67,76.98 202.81,76.99 C203.03,77.00 203.27,77.00 203.51,77.00 C203.45,77.00 203.38,77.00 203.32,77.00 C201.80,77.00 200.75,77.00 200.00,77.47 C199.89,77.54 199.79,77.61 199.69,77.70 ZM 258.80 195.63 C258.78,196.24 258.74,196.60 258.67,196.67 C258.64,196.69 258.60,196.71 258.56,196.72 C258.66,196.50 258.74,196.13 258.80,195.63 ZM 166.09 184.95 C173.52,179.74 181.98,173.80 188.81,168.97 C181.76,173.95 173.40,179.83 166.09,184.95 Z" fill="rgb(113,218,64)"/>
<path d="M 257.47 151.62 L 255.96 154.64 L 256.40 159.99 C256.47,161.73 256.27,163.00 255.88,163.00 C255.39,163.00 255.00,160.02 255.00,156.37 C255.00,147.36 257.22,143.81 264.59,141.05 C267.60,139.92 270.97,139.00 272.07,139.00 C273.17,139.00 275.74,138.27 277.78,137.37 C279.83,136.48 282.96,135.82 284.75,135.91 C287.07,136.02 288.00,135.62 288.00,134.53 C288.00,133.14 286.61,132.61 283.26,132.73 C282.58,132.75 282.24,132.42 282.51,131.99 C283.04,131.13 270.07,128.07 266.00,128.09 C264.62,128.10 261.02,127.55 258.00,126.88 C254.80,126.17 244.45,125.62 233.28,125.58 C232.40,125.57 231.56,125.57 230.75,125.57 C218.99,125.53 213.95,125.52 211.49,122.99 C209.48,120.92 209.21,117.16 208.40,110.31 C207.69,104.36 207.09,95.15 207.06,89.83 C207.00,79.88 206.54,78.80 202.76,79.78 C199.81,80.54 198.20,89.80 199.58,98.06 C200.02,100.72 199.74,101.97 198.45,103.04 C196.83,104.38 196.77,103.81 197.41,93.48 C197.47,92.50 197.53,91.57 197.58,90.69 C198.17,82.15 198.56,78.91 199.69,77.70 C199.79,77.61 199.89,77.54 200.00,77.47 C200.75,77.00 201.80,77.00 203.32,77.00 C203.38,77.00 203.45,77.00 203.51,77.00 L 203.55 77.00 C207.73,77.00 208.00,77.16 208.02,79.75 C208.03,81.26 208.70,90.79 209.50,100.91 C210.51,113.64 210.60,119.38 213.50,121.95 C215.88,124.06 220.15,124.04 228.36,124.01 C229.48,124.01 230.68,124.00 231.95,124.00 C248.89,124.00 260.03,124.97 272.50,127.54 C282.60,129.63 296.36,134.06 295.36,134.91 C294.89,135.31 288.20,137.11 280.50,138.90 C272.80,140.69 265.15,142.92 263.50,143.85 C263.40,143.90 263.30,143.96 263.20,144.03 C260.81,145.52 258.71,148.42 257.47,151.62 ZM 149.67 164.91 C150.05,156.93 149.85,151.92 147.79,148.41 C145.14,143.78 139.28,141.83 127.33,139.07 C126.63,138.91 125.97,138.75 125.33,138.60 C114.94,136.21 111.58,135.43 111.59,134.71 C111.60,134.32 112.60,133.95 114.00,133.35 C120.48,130.58 129.82,128.22 140.09,126.59 L 140.09 126.59 C146.40,125.60 153.17,124.86 160.10,124.44 C164.07,124.21 168.00,124.11 171.80,124.16 L 185.50 124.31 L 169.34 125.04 C160.46,125.44 152.58,126.15 151.84,126.63 C151.10,127.11 147.80,127.56 144.50,127.64 C141.20,127.73 135.57,128.54 132.00,129.46 C128.43,130.37 124.04,131.36 122.25,131.67 C120.45,131.97 119.00,132.82 119.00,133.57 C119.00,135.15 121.84,136.87 124.59,136.96 C130.24,137.16 136.68,138.36 138.00,139.47 C138.82,140.16 140.69,141.01 142.14,141.36 C143.59,141.70 146.18,143.58 147.89,145.53 C150.93,148.98 151.00,149.30 150.94,158.78 C150.91,164.13 150.49,170.30 150.00,172.50 C149.40,175.21 149.29,172.76 149.67,164.91 ZM 258.80 195.63 C258.74,196.13 258.66,196.50 258.56,196.72 C257.94,196.88 255.66,195.72 253.23,194.00 C251.66,192.89 250.14,191.80 248.66,190.76 C232.28,178.90 211.56,164.71 208.80,163.51 L 205.50 162.08 L 208.37 162.04 C210.17,162.01 212.50,163.11 214.64,164.99 C216.51,166.63 219.15,168.25 220.51,168.59 C221.87,168.93 222.74,169.61 222.44,170.10 C222.14,170.58 222.56,170.72 223.37,170.41 C225.51,169.59 228.95,171.74 230.03,174.58 C230.54,175.93 231.98,177.43 233.23,177.91 C234.48,178.39 236.59,179.96 237.92,181.39 C239.26,182.83 241.34,184.00 242.56,184.00 C243.81,184.00 245.48,185.08 246.41,186.50 C247.31,187.88 248.57,189.00 249.21,189.00 C249.85,189.00 251.39,189.96 252.63,191.13 C256.06,194.35 257.93,193.03 257.33,187.81 C257.06,185.44 256.59,182.82 256.30,182.00 C255.31,179.23 254.89,164.00 255.81,164.00 C256.32,164.00 256.76,165.76 257.26,170.45 L 257.26 170.45 L 257.66 175.30 C258.43,184.65 258.88,192.81 258.80,195.63 ZM 147.48 192.41 C147.56,191.87 147.63,191.29 147.70,190.70 L 151.07 194.07 L 154.40 190.53 C156.24,188.59 158.27,187.00 158.93,187.00 C159.59,187.00 161.27,185.65 162.65,184.00 C164.04,182.35 166.08,181.00 167.18,181.00 C168.35,181.00 169.41,180.16 169.71,179.00 C170.08,177.60 171.07,177.00 173.06,177.00 C174.66,177.00 176.45,176.20 177.19,175.16 C177.91,174.15 179.85,172.69 181.50,171.91 C183.15,171.13 184.94,169.48 185.49,168.25 C186.05,166.96 187.36,166.00 188.54,166.00 C189.67,166.00 191.03,165.62 191.55,165.16 C194.67,162.41 199.68,160.30 201.50,160.98 C203.21,161.63 202.97,161.89 199.81,162.77 C199.22,162.94 198.37,163.30 197.37,163.79 C194.98,164.86 192.23,166.56 188.81,168.97 C181.77,173.95 173.42,179.81 166.12,184.93 L 166.09 184.95 C156.90,191.38 149.37,196.62 148.19,197.39 C147.57,197.74 147.23,197.38 147.08,196.08 C147.12,195.25 147.26,194.06 147.48,192.41 ZM 191.93 123.04 C192.90,122.52 193.66,121.72 194.27,120.30 C195.49,118.30 196.03,115.82 196.13,112.32 C196.25,107.79 196.31,107.91 197.13,114.31 C198.21,122.71 197.26,125.01 192.71,124.98 C189.51,124.96 189.51,124.95 191.63,123.23 C191.69,123.18 191.74,123.14 191.79,123.10 C191.85,123.08 191.89,123.06 191.93,123.04 Z" fill="rgb(119,208,78)"/>
<path d="M 2.74 303.65 C2.85,304.34 2.97,305.04 3.09,305.73 L 1.55 297.50 C0.91,294.12 0.57,297.52 0.37,318.26 C0.43,304.40 0.50,294.31 0.56,289.53 C0.58,288.50 0.60,287.97 0.62,287.97 C0.62,287.97 0.62,287.98 0.63,288.00 C0.71,288.59 0.88,289.83 1.09,291.43 C1.51,295.57 2.06,299.65 2.74,303.65 ZM 3.89 310.02 C5.98,320.35 9.09,330.36 13.16,339.98 C14.62,343.46 16.19,346.88 17.89,350.23 C11.27,337.48 6.53,324.10 3.98,310.50 ZM 1.91 252.34 C2.02,250.48 2.60,247.19 3.44,243.26 C3.07,245.21 2.73,247.15 2.42,249.10 C2.25,250.18 2.08,251.26 1.91,252.34 ZM 0.35 212.26 C0.47,232.57 0.62,247.49 0.79,254.16 C0.77,253.86 0.75,253.52 0.74,253.16 C0.58,245.51 0.45,231.67 0.35,212.26 ZM 9.09 221.76 C9.65,219.99 10.19,218.38 10.70,217.00 C11.91,213.74 13.19,210.54 14.56,207.41 C13.48,209.90 12.47,212.42 11.51,214.98 C10.66,217.22 9.85,219.48 9.09,221.76 Z" fill="rgb(131,131,131)"/>
<path d="M 359.50 433.34 C335.35,428.98 313.28,417.28 296.05,399.72 C286.05,389.52 280.79,382.14 274.50,369.50 C258.33,336.99 258.23,298.67 274.23,266.50 C290.37,234.06 321.28,210.38 356.69,203.33 C368.28,201.03 392.41,201.05 402.84,203.37 C425.57,208.44 443.67,218.03 460.01,233.63 C495.00,267.06 505.77,319.85 486.63,364.11 C473.54,394.39 447.29,418.57 416.21,428.98 C398.59,434.89 377.18,436.53 359.50,433.34 ZM 398.16 418.59 C423.87,413.65 447.37,398.41 463.32,376.33 C476.21,358.48 483.54,330.27 481.01,308.25 C478.25,284.19 469.43,264.92 453.50,248.12 C437.46,231.20 419.36,221.36 397.12,217.47 C357.41,210.51 316.83,227.79 294.08,261.32 C288.97,268.85 282.41,283.66 280.04,293.00 C277.27,303.95 276.35,321.11 277.95,332.05 C284.27,375.27 317.14,409.91 360.00,418.51 C368.81,420.28 389.16,420.32 398.16,418.59 Z" fill="rgb(248,209,10)"/>
<path d="M 510.60 298.15 C508.90,283.18 500.70,261.13 491.57,246.99 C468.76,211.66 433.09,189.88 391.68,185.97 C383.46,185.19 380.31,184.51 379.67,183.37 C376.29,177.34 362.55,160.86 354.32,152.97 C324.91,124.77 287.84,109.93 242.75,108.30 C226.61,107.72 226.00,107.62 225.98,105.60 C225.97,104.44 225.34,95.98 224.59,86.78 C222.63,62.78 221.26,61.11 203.50,61.11 C185.17,61.11 184.12,62.44 182.03,88.26 L 180.47 107.50 L 171.99 107.73 C139.75,108.60 113.86,114.52 90.08,126.46 C73.00,135.04 61.05,144.00 46.40,159.23 C33.02,173.13 22.32,189.37 14.56,207.41 L 14.56 207.41 C13.19,210.54 11.91,213.74 10.70,217.00 C10.19,218.38 9.65,219.99 9.09,221.76 C6.74,228.81 4.84,236.00 3.44,243.26 C2.60,247.19 2.02,250.48 1.91,252.34 C1.79,253.14 1.68,253.94 1.57,254.74 C1.24,257.18 0.98,257.58 0.79,254.16 C0.62,247.49 0.47,232.57 0.35,212.26 C0.24,192.16 0.17,166.10 0.14,134.75 L 0.00 0.00 L 512.00 0.00 L 512.00 152.00 C512.00,235.60 511.83,304.00 511.63,304.00 C511.43,304.00 510.96,301.37 510.60,298.15 ZM 0.17 397.25 C0.21,366.15 0.29,338.28 0.37,318.26 C0.57,297.52 0.91,294.12 1.55,297.50 L 3.09 305.73 C3.34,307.16 3.61,308.60 3.89,310.02 L 3.98 310.50 C6.53,324.10 11.27,337.48 17.89,350.23 C24.06,362.43 31.83,373.78 41.20,384.25 C52.68,397.25 66.42,408.81 82.15,418.54 C104.23,432.20 129.78,441.61 156.70,446.62 C203.28,455.43 253.29,450.69 296.35,433.08 L 306.19 429.06 L 313.91 433.51 C350.21,454.44 394.07,456.73 432.78,439.70 C473.93,421.58 503.51,383.09 510.54,338.50 C511.61,331.73 511.82,344.42 511.90,421.25 L 512.00 512.00 L 0.00 512.00 ZM 368.62 403.91 C340.17,400.06 314.54,381.43 302.01,355.50 C295.92,342.90 293.99,335.36 293.33,321.50 C291.32,279.76 320.42,242.39 361.59,233.85 C369.65,232.18 373.74,231.89 383.50,232.33 C401.72,233.15 415.65,237.94 430.50,248.50 C454.62,265.63 468.74,297.94 465.02,327.50 C459.67,369.94 426.19,401.69 384.00,404.31 C379.33,404.61 372.40,404.42 368.62,403.91 ZM 422.92 324.25 C426.06,321.69 426.69,316.07 424.18,312.98 C422.21,310.54 421.93,310.50 404.59,310.19 L 387.00 309.87 L 387.00 285.44 C387.00,262.33 386.89,260.89 385.00,259.00 C382.44,256.44 376.97,256.39 373.86,258.91 L 371.50 260.82 L 371.21 290.44 L 370.91 320.07 L 373.88 323.03 L 376.85 326.00 L 398.81 326.00 C418.25,326.00 421.02,325.80 422.92,324.25 Z" fill="rgb(251,253,254)"/>
<path d="M 179.00 433.97 C127.66,427.74 84.36,407.63 55.21,376.48 C9.77,327.91 3.39,252.00 39.83,193.32 C50.64,175.92 66.07,159.89 82.11,149.41 C92.92,142.34 93.38,142.23 96.91,145.76 C99.53,148.37 102.21,149.34 116.63,152.88 C125.80,155.14 133.52,157.19 133.78,157.45 C134.04,157.70 133.44,167.52 132.46,179.25 C131.48,190.98 130.98,201.79 131.35,203.27 C132.39,207.39 137.74,212.84 142.00,214.12 C146.97,215.61 151.84,214.62 156.63,211.16 C170.22,201.35 201.18,179.87 202.42,179.39 C203.74,178.88 210.66,183.36 232.00,198.52 C254.31,214.37 257.45,215.94 264.00,214.50 C268.37,213.54 273.76,208.52 274.92,204.33 C275.78,201.21 274.47,177.36 272.57,161.40 L 272.08 157.31 L 287.79 153.53 C304.51,149.50 307.40,148.43 310.41,145.10 C311.45,143.95 312.79,143.00 313.39,143.00 C316.99,143.00 336.29,157.27 346.51,167.49 C353.71,174.69 362.17,185.50 361.29,186.37 C360.95,186.72 359.48,187.00 358.04,187.00 C353.71,187.00 336.70,191.77 328.11,195.40 C286.92,212.77 256.92,249.72 248.39,293.58 C246.08,305.49 246.04,329.21 248.32,341.55 C252.96,366.69 264.75,389.92 282.39,408.66 L 290.97 417.77 L 286.23 419.79 C275.13,424.53 256.37,429.50 238.00,432.56 C226.76,434.43 190.07,435.31 179.00,433.97 Z" fill="rgb(252,70,70)"/>
</g>
</svg>